<?xml version="1.0" encoding="UTF-8" standalone="no"?><!DOCTYPE svg PUBLIC "-//W3C//DTD SVG 1.1//EN" "http://www.w3.org/Graphics/SVG/1.1/DTD/svg11.dtd"><svg width="100%" height="100%" viewBox="0 0 767 351" version="1.1" xmlns="http://www.w3.org/2000/svg" xmlns:xlink="http://www.w3.org/1999/xlink" xml:space="preserve" xmlns:serif="http://www.serif.com/" style="fill-rule:evenodd;clip-rule:evenodd;stroke-linejoin:round;stroke-miterlimit:1.41421;"><g><path d="M370.455,56.323c16.834,-0.111 29.408,6.654 37.124,18.746l-0.345,-71.187c-7.611,-2.491 -15.716,-3.882 -24.159,-3.882c-42.895,0 -77.667,34.773 -77.667,77.667c0,19.266 7.055,36.856 18.669,50.43c-1.762,-5.737 -2.764,-12.014 -2.809,-18.788c-0.203,-31.325 19.821,-52.796 49.187,-52.986Z" style="fill:#282060;fill-rule:nonzero;"/><path d="M460.74,77.667c0,-25.318 -12.169,-47.738 -30.919,-61.917l0.679,123.327c18.365,-14.205 30.24,-36.396 30.24,-61.41Z" style="fill:#80276c;fill-rule:nonzero;"/><path d="M375.671,75.472c-18.796,0.124 -31.817,14.498 -31.883,34.474c0.327,19.768 13.335,33.78 32.323,33.656c18.796,-0.124 31.822,-14.304 31.693,-34.077c-0.132,-20.166 -13.339,-34.177 -32.133,-34.053Z" style="fill:#282060;fill-rule:nonzero;"/><path d="M91.684,224.983c0,22.39 -14.898,38.028 -36.23,38.028c-21.448,0 -36.429,-15.638 -36.429,-38.028c0,-22.507 14.981,-38.226 36.429,-38.226c20.992,0 36.23,16.077 36.23,38.226Zm0,-36.13c-8.66,-12.386 -22.436,-19.124 -39.427,-19.124c-30.769,0 -52.257,22.557 -52.257,54.855c0,32.533 21.57,55.255 52.457,55.255c16.848,0 30.556,-6.689 39.227,-18.981l0,18.182l19.025,0l0,-165.095l-19.025,0l0,74.908Z" style="fill:#282060;fill-rule:nonzero;"/><path d="M221.227,203.789l-64.848,22.433c-0.025,-0.723 -0.025,-1.452 -0.025,-2.237c0,-23.086 13.576,-37.427 35.43,-37.427c14.073,0 24.215,5.948 29.443,17.231Zm19.605,8.583c-3.484,-26.223 -22.367,-42.445 -49.339,-42.445c-0.173,0 -0.347,0.001 -0.52,0.001c-31.585,0.203 -53.644,22.678 -53.644,54.656c0,32.415 22.638,55.055 55.055,55.055c18.281,0 33.517,-7.407 45.285,-22.015l1.027,-1.275l-11.948,-10.676l-1.139,1.389c-8.803,10.716 -19.646,16.148 -32.228,16.148c-15.669,0 -28.146,-8.108 -33.709,-21.79l81.345,-27.646l-0.185,-1.402Z" style="fill:#282060;fill-rule:nonzero;"/><path d="M325.668,169.928c-17.874,0.187 -30.963,6.508 -39.008,18.814l0,-18.214l-19.023,0l0,108.512l19.023,0l-0.007,-57.899c1.796,-20.344 14.378,-32.601 33.641,-32.787c17.558,0 28.04,10.557 28.04,28.24l0,62.446l19.024,0l0,-66.44c0,-26.72 -15.579,-42.672 -41.69,-42.672Z" style="fill:#282060;fill-rule:nonzero;"/><path d="M479.673,249.443c-7.135,8.484 -17.938,12.968 -31.241,12.968c-20.977,0 -35.629,-15.473 -35.629,-37.627c0,-22.037 14.652,-37.428 35.629,-37.428c11.748,0 22.177,4.114 30.158,11.894l1.364,1.33l10.724,-13.466l-1.066,-1.088c-10.316,-10.531 -24.762,-16.098 -41.778,-16.098c-31.207,0 -53.856,23.071 -53.856,54.856c0,32.298 22.145,54.855 53.856,54.855c18.037,0 33.477,-6.678 43.476,-18.803l0.984,-1.195l-11.4,-11.651l-1.221,1.453Z" style="fill:#282060;fill-rule:nonzero;"/><path d="M607.734,220.989l0,7.915c-1.765,20.404 -16.237,34.107 -36.032,34.107c-21.448,0 -36.428,-15.638 -36.428,-38.028c0,-22.507 14.98,-38.226 36.428,-38.226c19.809,0 34.29,13.815 36.032,34.232Zm0,-32.384c-8.861,-12.399 -22.668,-19.061 -39.626,-18.876c-30.535,0 -51.859,22.557 -51.859,54.855c0,32.533 21.571,55.255 52.458,55.255c16.706,0 30.345,-6.64 39.027,-18.838l0,18.039l19.022,0l0,-108.512l-19.022,0l0,18.077Z" style="fill:#282060;fill-rule:nonzero;"/><path d="M746.926,224.584c0,22.272 -14.733,37.827 -35.831,37.827c-21.213,0 -36.03,-15.555 -36.03,-37.827c0,-22.272 14.817,-37.827 36.03,-37.827c20.762,0 35.831,15.909 35.831,37.827Zm-33.033,-54.656c-16.334,0 -30.171,6.801 -38.828,18.865l0,-18.265l-19.024,0l0,150.472l19.024,0l0,-60.203c8.699,12.203 22.406,18.842 39.225,18.842c30.535,0 51.859,-22.475 51.859,-54.656c0,-32.415 -21.489,-55.055 -52.256,-55.055Z" style="fill:#282060;fill-rule:nonzero;"/><path d="M178.65,316.519c-3.033,-1.841 -6.821,-2.6 -12.885,-2.6l-5.575,0l0,32.752l5.575,0c7.093,0 11.206,-1.03 14.4,-3.573c3.682,-2.979 5.738,-7.58 5.738,-12.83c0,-5.954 -2.652,-10.99 -7.253,-13.749Zm-11.693,33.778l-10.773,0l0,-40.004l9.42,0c7.254,0 11.476,0.866 15.265,3.139c5.954,3.519 9.095,9.474 9.095,16.999c0,11.529 -7.363,19.866 -23.007,19.866Z" style="fill:#80276c;fill-rule:nonzero;"/><path d="M204.03,350.297l0,-40.004l21.87,0l0,3.626l-17.864,0l0,14.347l17.268,0l0,3.626l-17.268,0l0,14.779l17.864,0l0,3.626l-21.87,0Z" style="fill:#80276c;fill-rule:nonzero;"/><path d="M268.443,350.297l-23.819,-35.187l0,35.187l-4.006,0l0,-40.004l5.413,0l22.412,33.184l0,-33.184l4.005,0l0,40.004l-4.005,0Z" style="fill:#80276c;fill-rule:nonzero;"/><path d="M297.666,313.919l0,36.378l-4.004,0l0,-36.378l-9.15,0l0,-3.626l22.303,0l0,3.626l-9.149,0Z" style="fill:#80276c;fill-rule:nonzero;"/><path d="M332.091,314.84l-7.848,18.35l15.535,0l-7.687,-18.35Zm15.05,35.457l-5.794,-13.479l-18.621,0l-5.846,13.479l-4.222,0l17.16,-40.004l4.493,0l17.214,40.004l-4.384,0Z" style="fill:#80276c;fill-rule:nonzero;"/><path d="M363.805,350.297l0,-40.004l4.006,0l0,36.378l16.565,0l0,3.626l-20.571,0Z" style="fill:#80276c;fill-rule:nonzero;"/><path d="M428.647,313.919l-5.683,0l0,16.564l7.416,0c7.957,0 10.989,-2.272 10.989,-8.064c0,-8.12 -5.089,-8.5 -12.722,-8.5Zm2.004,20.192l-7.687,0l0,16.186l-4.006,0l0,-40.004l11.042,0c10.989,0 15.428,3.734 15.428,12.126c0,7.578 -3.897,11.692 -14.777,11.692Z" style="fill:#80276c;fill-rule:nonzero;"/><path d="M458.576,350.297l0,-40.004l4.006,0l0,36.378l16.565,0l0,3.626l-20.571,0Z" style="fill:#80276c;fill-rule:nonzero;"/><path d="M508.969,314.84l-7.85,18.35l15.536,0l-7.686,-18.35Zm15.049,35.457l-5.792,-13.479l-18.622,0l-5.846,13.479l-4.223,0l17.159,-40.004l4.494,0l17.214,40.004l-4.384,0Z" style="fill:#80276c;fill-rule:nonzero;"/><path d="M568.506,350.297l-23.817,-35.187l0,35.187l-4.006,0l0,-40.004l5.414,0l22.409,33.184l0,-33.184l4.006,0l0,40.004l-4.006,0Z" style="fill:#80276c;fill-rule:nonzero;"/><path d="M597.893,351c-7.2,0 -12.125,-4.709 -12.505,-11.908l4.277,0c0.596,5.358 3.844,8.227 8.337,8.227c4.547,0 7.902,-3.355 7.902,-7.957c0,-4.385 -2.056,-6.279 -8.93,-8.389c-4.656,-1.409 -5.902,-2.004 -7.471,-3.52c-1.786,-1.679 -2.815,-4.331 -2.815,-7.092c0,-6.224 4.655,-10.771 11.097,-10.771c6.55,0 11.206,4.329 11.206,10.825l-4.17,0c0,-4.331 -3.085,-7.144 -7.144,-7.144c-4.006,0 -6.93,2.977 -6.93,6.983c0,1.84 0.758,3.681 1.896,4.654c1.028,0.921 2.274,1.408 5.9,2.49c4.113,1.246 5.792,2.003 7.416,3.195c2.545,1.894 4.006,5.034 4.006,8.553c0,6.82 -5.144,11.854 -12.072,11.854Z" style="fill:#80276c;fill-rule:nonzero;"/></g></svg>