<?xml version="1.0" encoding="utf-8"?>
<!-- Generator: Adobe Illustrator 23.0.1, SVG Export Plug-In . SVG Version: 6.00 Build 0)  -->
<svg version="1.1" id="Layer_1" xmlns="http://www.w3.org/2000/svg" xmlns:xlink="http://www.w3.org/1999/xlink" x="0px" y="0px"
	 viewBox="0 0 792 189.5" style="enable-background:new 0 0 792 189.5;" xml:space="preserve">
<style type="text/css">
	.st0{fill:#250E62;}
	.st1{fill:#80276C;}
</style>
<g>
	<g>
		<path class="st0" d="M89.2,76.1c16.8-0.1,29.4,6.7,37.1,18.7L126,23.6c-7.6-2.5-15.7-3.9-24.2-3.9c-42.9,0-77.7,34.8-77.7,77.7
			c0,19.3,7.1,36.9,18.7,50.4c-1.8-5.7-2.8-12-2.8-18.8C39.8,97.7,59.9,76.3,89.2,76.1z"/>
		<path class="st1" d="M179.5,97.4c0-25.3-12.2-47.7-30.9-61.9l0.7,123.3C167.7,144.6,179.5,122.4,179.5,97.4z"/>
		<path class="st0" d="M94.5,95.2c-18.8,0.1-31.8,14.5-31.9,34.5c0.3,19.8,13.3,33.8,32.3,33.7c18.8-0.1,31.8-14.3,31.7-34.1
			C126.5,109.1,113.2,95.1,94.5,95.2z"/>
	</g>
	<g>
		<path class="st0" d="M290.7,73.7c-6.1-8.8-15.9-13.5-27.9-13.5c-21.8,0-37,16-37,38.8c0,23,15.3,39.1,37.1,39.1
			c11.9,0,21.6-4.7,27.7-13.4v12.9h13.5V20.7h-13.5V73.7z M290.7,99.2c0,15.8-10.5,26.9-25.6,26.9c-15.2,0-25.8-11.1-25.8-26.9
			c0-15.9,10.6-27,25.8-27C279.9,72.2,290.7,83.6,290.7,99.2z"/>
		<path class="st0" d="M396.2,90.3c-2.5-18.6-15.8-30-34.9-30c-0.1,0-0.2,0-0.4,0c-22.3,0.1-37.9,16-37.9,38.7
			c0,22.9,16,38.9,38.9,38.9c12.9,0,23.7-5.2,32-15.6l0.7-0.9l-8.5-7.6l-0.8,1c-6.2,7.6-13.9,11.4-22.8,11.4
			c-11.1,0-19.9-5.7-23.8-15.4l57.5-19.6L396.2,90.3z M382.3,84.2l-45.9,15.9c0-0.5,0-1,0-1.6c0-16.3,9.6-26.5,25.1-26.5
			C371.5,72,378.6,76.3,382.3,84.2z"/>
		<path class="st0" d="M456.2,60.3c-12.6,0.1-21.9,4.6-27.6,13.3V60.7h-13.5v76.8h13.5l0-41c1.3-14.4,10.2-23.1,23.8-23.2
			c12.4,0,19.8,7.5,19.8,20v44.2h13.5v-47C485.7,71.6,474.7,60.3,456.2,60.3z"/>
		<path class="st0" d="M565.2,116.5c-5,6-12.7,9.2-22.1,9.2c-14.8,0-25.2-10.9-25.2-26.6c0-15.6,10.4-26.5,25.2-26.5
			c8.3,0,15.7,2.9,21.3,8.4l1,0.9l7.6-9.5l-0.8-0.8c-7.3-7.5-17.5-11.4-29.6-11.4c-22.1,0-38.1,16.3-38.1,38.8
			c0,22.8,15.7,38.8,38.1,38.8c12.8,0,23.7-4.7,30.8-13.3l0.7-0.8l-8.1-8.2L565.2,116.5z"/>
		<path class="st0" d="M655.7,73.5c-6.3-8.8-16-13.5-28-13.4c-21.6,0-36.7,16-36.7,38.8c0,23,15.3,39.1,37.1,39.1
			c11.8,0,21.5-4.7,27.6-13.3v12.8h13.5V60.7h-13.5V73.5z M655.7,96.4v5.6c-1.2,14.4-11.5,24.1-25.5,24.1
			c-15.2,0-25.8-11.1-25.8-26.9c0-15.9,10.6-27,25.8-27C644.3,72.2,654.5,82,655.7,96.4z"/>
		<path class="st0" d="M730.8,60.3c-11.6,0-21.3,4.8-27.5,13.3V60.7h-13.5v106.4h13.5v-42.6c6.2,8.6,15.9,13.3,27.7,13.3
			c21.6,0,36.7-15.9,36.7-38.7C767.8,76.3,752.6,60.3,730.8,60.3z M754.2,98.9c0,15.8-10.4,26.8-25.3,26.8c-15,0-25.5-11-25.5-26.8
			c0-15.8,10.5-26.8,25.5-26.8C743.5,72.2,754.2,83.4,754.2,98.9z"/>
	</g>
</g>
</svg>
