<?xml version="1.0" encoding="utf-8"?>
<!-- Generator: Adobe Illustrator 23.0.1, SVG Export Plug-In . SVG Version: 6.00 Build 0)  -->
<svg version="1.1" id="Camada_1" xmlns="http://www.w3.org/2000/svg" xmlns:xlink="http://www.w3.org/1999/xlink" x="0px" y="0px"
	 viewBox="0 0 1080 1080" style="enable-background:new 0 0 1080 1080;" xml:space="preserve">
<style type="text/css">
	.st0{fill:#FF2C3C;}
</style>
<path class="st0" d="M534,549.9v-160h-12l-18-31l18-31h36l18,31l-18,31h-12v160l130-180v-157l-75-116l-61,108l-61-108l-75,116v157
	L534,549.9z M557,564.9l151-52l-4-11l23-27l35,7l12,34l-23,27l-36-7l-3-11l-151,51l212,65l149-51l85-108l-122-23l82-93l-134-33
	l-148,51L557,564.9z M523,564.9l-150-52l3-11l-23-27l-35,7l-12,34l24,27l35-7l4-11l150,51l-212,65l-148-51l-86-108l122-23l-82-93
	l134-33l149,51L523,564.9z"/>
<g>
	<path class="st0" d="M556,588.9l95,127l10-7l33,14l4,35l-29,22l-32-14l-5-36l10-7l-96-127l4,221l94,126l130,48l-16-123l113,50
		l-9-138l-94-126L556,588.9z M524,588.9l-95,127l-10-7l-32,14l-5,35l29,22l33-14l4-36l-9-7l95-127l-3,221l-95,126l-129,48l15-123
		l-113,50l9-138l95-126L524,588.9z"/>
</g>
</svg>
