<svg width="1927" height="376" viewBox="0 0 1927 376" fill="none" xmlns="http://www.w3.org/2000/svg">
<path d="M5.28223 23.4319H72.0764L226.282 230.882V226.109V352.591L76.8474 143.266V352.591H5.28223V23.4319Z" fill="#FF2C3C"/>
<path d="M226.282 23.4319V90.2524H252.523H271.436H297.677V23.4319H226.282Z" fill="white"/>
<path d="M297.677 126.39H226.282V352.591H297.677V126.39Z" fill="white"/>
<path d="M468 2.52972H497.935L567.102 93.3892V2.52972H599.145V150.097H571.529L500.043 56.2865V150.118H468V2.52972Z" fill="#FF2C3C"/>
<path d="M675.396 31.3897V31.4108H745.87V2.52972H634.541V31.3897H675.396Z" fill="#FF2C3C"/>
<path d="M666.795 121.237V90.2481H736.383V61.3459H675.396H634.541V150.118H746.924V121.237H666.795Z" fill="#FF2C3C"/>
<path d="M769.165 76.3135C769.165 34.3622 802.262 0 847.797 0C893.332 0 926.029 33.9405 926.029 76.3135C926.029 118.286 892.932 152.648 847.375 152.648C801.819 152.648 769.165 118.708 769.165 76.3135ZM892.088 76.3135C892.088 51.0162 873.537 29.9351 847.375 29.9351C821.214 29.9351 803.105 50.5946 803.105 76.3135C803.105 101.611 821.656 122.692 847.797 122.692C873.938 122.692 892.173 102.054 892.173 76.3135H892.088Z" fill="#FF2C3C"/>
<path d="M469.476 225.503H501.94V373.07H469.476V225.503Z" fill="#FAFBFF"/>
<path d="M538.833 225.503H568.768L637.935 316.362V225.503H670.083V373.07H642.362L570.876 279.259V373.091H538.833V225.503Z" fill="#FAFBFF"/>
<path d="M694.833 225.503V255.438H739.736H772.201H817.124V225.503H694.833Z" fill="#FAFBFF"/>
<path d="M772.2 284.256H739.735V373.07H772.2V284.256Z" fill="#FAFBFF"/>
<path d="M841.979 225.503V254.405H874.233V254.384H953.287V225.503H841.979Z" fill="#FAFBFF"/>
<path d="M874.233 344.21V313.221H943.8V284.319H878.575V284.34H841.979V373.091H954.341V344.21H874.233Z" fill="#FAFBFF"/>
<path d="M1074.71 320.389C1093.48 313.432 1106.33 298.443 1106.33 274.622C1106.33 260.286 1101.91 248.692 1093.69 240.47C1083.97 230.773 1069.42 225.503 1050.66 225.503H983.2V254.784H1047.92C1063.75 254.784 1073.43 261.952 1073.43 275.865C1073.43 288.725 1064.36 297.178 1048.55 297.178H983.2V373.07H1015.67V325.849H1040.75L1072.79 373.07H1110.74L1074.71 320.389Z" fill="#FAFBFF"/>
<path d="M1186.23 224.449H1216.08L1279.33 373.091H1245.47L1231.98 339.994H1169.58L1156.09 373.091H1122.99L1186.23 224.449ZM1220.3 311.324L1200.69 263.449L1181.09 311.324H1220.3Z" fill="#FAFBFF"/>
<path d="M1286.16 299.308C1286.16 257.335 1317.78 222.973 1363.1 222.973C1390.93 222.973 1406.53 233.513 1420.23 247.005L1400.84 269.351C1389.45 259.022 1379.76 252.908 1362.89 252.908C1338.02 252.908 1320.1 273.568 1320.1 299.286C1320.1 324.584 1337.6 345.665 1362.89 345.665C1379.76 345.665 1390.09 338.919 1401.68 328.378L1422.34 350.513C1407.16 366.746 1390.3 375.6 1361.84 375.6C1318.41 375.621 1286.16 342.102 1286.16 299.308Z" fill="#FAFBFF"/>
<path d="M1515.1 285.436H1482.63V373.091H1515.1V285.436Z" fill="#FAFBFF"/>
<path d="M1437.73 225.503V255.438H1478.21V255.417H1524.44V255.438H1560V225.503H1437.73Z" fill="#FAFBFF"/>
<path d="M1586.35 225.503H1618.73V373.07H1586.27L1586.35 225.503Z" fill="#FAFBFF"/>
<path d="M1643.06 225.503H1678.9L1717.48 329.453L1756.05 225.503H1791.05L1731.39 374.145H1702.72L1643.06 225.503Z" fill="#FAFBFF"/>
<path d="M1846.07 344.21V313.221H1915.64V284.319H1853.28V284.382H1813.82V373.091H1926.18V344.21H1846.07Z" fill="#FAFBFF"/>
<path d="M1813.82 225.503V254.342H1851.8V254.384H1925.12V225.503H1813.82Z" fill="#FAFBFF"/>
</svg>
