<svg xmlns="http://www.w3.org/2000/svg" viewBox="0 0 697.98 197.72"><defs><style>.cls-1{fill:#fff;}</style></defs><title>NI_Logo_2020_White</title><g id="Layer_2" data-name="Layer 2"><g id="Layer_3" data-name="Layer 3"><path class="cls-1" d="M3.14,4.11h14.2l32.81,43.1V4.11h15.2v70H52.25L18.34,29.61V74.12H3.14Z"/><polygon class="cls-1" points="101.52 17.8 101.52 17.81 134.95 17.81 134.95 4.11 82.14 4.11 82.14 17.8 101.52 17.8"/><polygon class="cls-1" points="97.44 60.42 97.44 45.72 130.45 45.72 130.45 32.01 101.52 32.01 101.52 32.01 82.14 32.01 82.14 74.12 135.45 74.12 135.45 60.42 97.44 60.42"/><path class="cls-1" d="M146,39.11c0-19.9,15.7-36.2,37.3-36.2s37.11,16.1,37.11,36.2c0,19.91-15.7,36.21-37.31,36.21S146,59.22,146,39.11Zm58.31,0c0-12-8.8-22-21.21-22s-21,9.8-21,22c0,12,8.8,22,21.2,22S204.35,51.32,204.35,39.11Z"/><path class="cls-1" d="M225.54,78.52h60.4v11.6h-60.4Z"/><path class="cls-1" d="M3.84,124.11h15.4v70H3.84Z"/><path class="cls-1" d="M36.74,124.11h14.2l32.81,43.1v-43.1H99v70H85.85L51.94,149.61v44.51H36.74Z"/><polygon class="cls-1" points="110.74 124.11 110.74 138.31 132.04 138.31 132.04 138.31 147.44 138.31 147.44 138.31 168.75 138.31 168.75 124.11 110.74 124.11"/><rect class="cls-1" x="132.04" y="151.98" width="15.4" height="42.13"/><polygon class="cls-1" points="180.54 124.11 180.54 137.82 195.84 137.82 195.84 137.81 233.34 137.81 233.34 124.11 180.54 124.11"/><polygon class="cls-1" points="195.84 180.42 195.84 165.72 228.84 165.72 228.84 152.01 197.9 152.01 197.9 152.02 180.54 152.02 180.54 194.12 233.84 194.12 233.84 180.42 195.84 180.42"/><path class="cls-1" d="M290.94,169.12c8.9-3.3,15-10.41,15-21.71,0-6.8-2.1-12.3-6-16.2-4.61-4.6-11.51-7.1-20.41-7.1h-32V138h30.7c7.51,0,12.1,3.4,12.1,10,0,6.1-4.3,10.11-11.8,10.11h-31v36h15.4v-22.4h11.9l15.2,22.4h18Z"/><path class="cls-1" d="M343.84,123.61H358l30,70.51H371.94l-6.4-15.7h-29.6l-6.4,15.7h-15.7ZM360,164.82l-9.3-22.71-9.3,22.71Z"/><path class="cls-1" d="M391.24,159.12c0-19.91,15-36.21,36.5-36.21,13.2,0,20.6,5,27.1,11.4l-9.2,10.6c-5.4-4.9-10-7.8-18-7.8-11.8,0-20.3,9.8-20.3,22,0,12,8.3,22,20.3,22,8,0,12.9-3.2,18.4-8.2l9.8,10.5c-7.2,7.7-15.2,11.9-28.7,11.9C406.54,195.32,391.24,179.42,391.24,159.12Z"/><rect class="cls-1" x="484.44" y="152.54" width="15.4" height="41.58"/><polygon class="cls-1" points="463.14 124.11 463.14 138.31 482.34 138.31 482.34 138.3 504.27 138.3 504.27 138.31 521.14 138.31 521.14 124.11 463.14 124.11"/><path class="cls-1" d="M533.64,124.11H549v70h-15.4Z"/><path class="cls-1" d="M560.54,124.11h17l18.3,49.31,18.3-49.31h16.6l-28.3,70.51h-13.6Z"/><polygon class="cls-1" points="656.84 180.42 656.84 165.72 689.84 165.72 689.84 152.01 660.26 152.01 660.26 152.04 641.54 152.04 641.54 194.12 694.84 194.12 694.84 180.42 656.84 180.42"/><polygon class="cls-1" points="641.54 124.11 641.54 137.79 659.56 137.79 659.56 137.81 694.34 137.81 694.34 124.11 641.54 124.11"/></g></g></svg>