<?xml version="1.0" encoding="utf-8"?>
<!-- Generator: Adobe Illustrator 25.0.1, SVG Export Plug-In . SVG Version: 6.00 Build 0)  -->
<svg version="1.1" id="Layer_1" xmlns="http://www.w3.org/2000/svg" xmlns:xlink="http://www.w3.org/1999/xlink" x="0px" y="0px"
	 viewBox="0 0 1920 1080" style="enable-background:new 0 0 1920 1080;" xml:space="preserve">
<style type="text/css">
	.st0{fill:#FFFFFF;}
</style>
<g>
	<g>
		<path class="st0" d="M988.1,660c-18.6,0-37.1,0-55.7,0c1.1-1.1,1.5-2.5,1.5-4c0-5,0.1-10.1,0.2-15.1c0-2.6,0.2-5.3,0.3-7.9
			c0.2-6.4,0.6-12.8,0.6-19.2c0.1-10.2,0.1-20.3,0.1-30.5c0-3.1,0-6.2,0-9.4c0-1.1-0.5-1.4-1.5-1.3c-0.9,0.1-1.9,0.1-2.9,0
			c-1.5-0.1-3.1-0.4-4.6-0.5c-1.6-0.1-1.7,0.1-1.6,1.6c0.3,4.4,0.6,8.8,0.7,13.2c0.2,10.2,0.4,20.3,0.4,30.5
			c0,8.8,0.7,17.5,2.5,26.1c0.7,3.5,1.4,7,2.1,10.5c0.4,2,1,4,1.4,6c-30.6,0-61.1,0-91.7,0c0-80,0-160,0-240c80,0,160,0,240,0
			c0,80,0,160,0,240c-30.4,0-60.8,0-91.2,0c0.2-0.5,0.4-0.9,0.5-1.4c1-4.6,2-9.1,2.8-13.7c0.9-5,2.1-9.9,2.4-14.9
			c0.5-8.2,0.4-16.4,0.6-24.6c0.2-10.1,0.5-20.3,0.8-30.4c0.1-3.1,0-3.2-3.1-2.7c-1.9,0.3-3.8,0.3-5.7,0.3c-1.3,0-1.6,0.1-1.6,1.4
			c0,2.4,0,4.9,0,7.3c0.1,12.6,0.3,25.2,0.5,37.8c0.1,6,0.4,11.9,0.5,17.8c0.1,6.3,0.2,12.6,0.2,18.8
			C986.6,657.5,987,658.8,988.1,660z M973.1,563.9c0.2-0.2,0.3-0.3,0.5-0.5c1,0.5,2.1,0.8,2.9,1.4c1.6,1.3,3,2.8,4.6,4
			c1,0.8,2.1,1.6,3.3,2c3.2,1,6.5,0.3,9.7-0.2c1.2-0.2,1.3-0.8,0.7-1.9c-1.3-2.3-1.2-2.7,0.6-4.6c0.6-0.6,1.3-1.2,2-1.8
			c0.5-0.4,1.1-0.8,1.3-1.3c1.2-2.8,2-5.5-0.3-8.2c-0.5-0.6-1-0.8-1.6-0.3c-0.5,0.4-1,0.8-1.4,1.2c-0.1,0-0.2-0.1-0.4-0.1
			c0.4-2,0.8-4.1,1.3-6.1c0.6-2.1,0.3-4-0.4-6c-0.5-1.5-0.9-3.1-1.1-4.6c-0.5-4.1-0.8-8.3-1.2-12.4c0-0.4,0-0.8-0.1-1.2
			c0.1,0,0.2-0.1,0.3-0.1c0.3,0.7,0.7,1.5,0.9,2.2c0.3,1.6,0.5,3.2,0.8,4.8c0.1,0.5,0.5,0.8,0.8,1.3c0.2-0.4,0.6-0.8,0.6-1.2
			c0.1-2.1,0.5-4.2,0-6.2c-1.2-5-3.3-9.6-6.6-13.6c-1.5-1.9-3.2-3.7-4.9-5.4c-0.9-0.9-1.8-1.9-2.9-2.3c-5.4-2.2-10.7-4.7-16.6-5.8
			c-4.7-0.9-9.4-0.9-14,0.5c-4.8,1.4-9.4,3.3-14.1,5.1c-0.9,0.4-1.8,1-2.5,1.8c-1.7,1.6-3.2,3.4-4.8,5.1c-2.6,2.9-4.3,6.3-5.9,9.8
			c-1.5,3.5-2.4,7-1.6,10.8c0.1,0.5,0.4,0.9,0.7,1.3c0.3-0.5,0.7-0.9,0.8-1.5c0.3-1.6,0.5-3.2,0.8-4.7c0.2-0.8,0.6-1.5,0.9-2.2
			c0.1,0,0.2,0.1,0.4,0.1c-0.1,0.5-0.1,1.1-0.2,1.6c-0.2,1.4-0.5,2.8-0.6,4.3c-0.2,2.8-0.3,5.6-0.5,8.4c-0.1,1.1-0.3,2.3-0.8,3.2
			c-1.2,2.6-1.2,5.2-0.4,7.9c0.5,1.6,0.6,3.3,0.9,4.9c-0.8-0.3-1.2-0.8-1.8-1.1c-0.3-0.2-1.1-0.2-1.3,0c-1,1.6-2.3,3.1-1.7,5.3
			c0.6,2.1,1.3,4.1,3.3,5.3c0.4,0.3,0.8,0.7,1.1,1.1c1.8,1.8,1.8,2.3,0.6,4.5c-0.7,1.2-0.5,1.9,0.9,2c2.5,0.3,5.1,0.5,7.6,0.6
			c1.6,0,3.1-0.5,4.3-1.6c1.8-1.7,3.6-3.4,5.6-4.9c0.8-0.6,1.9-0.9,3.2-1.5c-0.1,2.8-1.7,4.6-2.4,6.8c-0.2-0.6-0.1-1.2-0.1-1.8
			c0-0.4-0.2-0.7-0.3-1.1c-0.4,0.2-0.8,0.3-1.1,0.6c-1.5,1.8-2.9,3.7-4.3,5.6c-0.3,0.5-0.7,1.1-0.7,1.6c-0.1,2.1-0.1,4.2,0,6.4
			c0,0.7,0.4,1.2,1.2,1.2c2.6,0.1,5.1,0.5,7,2.6c0.1,0.1,0.2,0.1,0.3,0.2c2.8,0.9,5.5,1.7,8.5,1.4c2.8-0.3,5.7-0.6,8.5-0.2
			c3.4,0.5,6.4,0,9.5-1c0.6-0.2,1.1-0.9,1.6-1.3c0.4-0.3,0.7-0.5,1.1-0.7c0.3-0.1,0.7-0.2,1-0.2c1.3-0.3,2.6-0.7,3.9-0.8
			c1-0.1,1.4-0.5,1.4-1.4c0-2,0-4,0-6c0-0.4-0.1-0.9-0.4-1.2c-1.6-2.1-3.2-4.3-4.9-6.4c-0.2-0.2-0.7-0.4-0.8-0.3
			c-0.2,0.2-0.4,0.6-0.4,0.9c0,0.6,0,1.3,0.1,1.9c-0.1,0-0.3,0-0.4,0.1C974.7,568,973.9,565.9,973.1,563.9z M967.4,444
			c0-0.1,0.1-0.3,0.1-0.4c0.8,0.1,1.6,0.1,2.4,0.2c1.2,0.2,2.3-0.3,3.2-0.9c0.8-0.6,0.8-1.1,0.2-1.8c-2.4-3-4.9-5.9-7-9.1
			c-2.1-3.2-3.6-6.7-5.4-10c-0.2-0.3-0.5-0.6-0.8-0.9c-0.3,0.3-0.6,0.6-0.7,1c-1.8,3.3-3.3,6.8-5.3,9.9c-2.1,3.2-4.7,6.1-7.1,9.2
			c-0.5,0.7-0.5,1.2,0.2,1.7c1,0.7,2,1.2,3.2,1c0.8-0.1,1.6-0.1,2.7-0.2c-0.3,0.3-0.4,0.5-0.6,0.5c-2.8,1.5-5.6,3-8.5,4.4
			c-7.5,3.7-15.6,5.5-23.7,7c-5.9,1.1-12.1,1.5-18.1,0c-1.8-0.4-3.2,0.9-3,2.7c0.1,1.3,0.6,2.6,0.7,3.9c0.2,3.3,0.4,6.5,0.5,9.8
			c0.1,2.2,1,2.8,3,1.9c7.1-3.3,14.1-6.8,21.8-8.7c3.6-0.9,7.4-1.5,11-2.2c1-0.2,1.8,0.2,2.1,1.3c-0.4,0.2-0.8,0.5-1.3,0.7
			c-3.1,1.5-6.1,2.9-9.2,4.4c-1.3,0.7-1.5,1.1-0.9,2.5c0.7,1.5,1.4,3.1,2.1,4.5c1.2,2.3,2.4,4.7,3.7,7c1,1.7,2.3,2.1,3.9,1.5
			c4.3-1.4,8.6-3,13-4c4.3-1,8.7-1.7,13.2-1.2c7,0.8,13.8,2.5,20.4,5.2c1.6,0.6,2.7,0.4,3.7-0.9c0.5-0.6,0.9-1.3,1.3-2
			c1.7-3.4,3.3-6.8,5-10.2c0.5-1,0.2-1.8-0.9-2.3c-1.7-0.8-3.4-1.6-5.1-2.4c-1.8-0.9-3.6-1.8-5.5-2.6c0.5-1.6,1.6-1.5,2.7-1.4
			c7.2,1.2,14.3,2.7,21,5.8c3.9,1.8,7.7,3.5,11.6,5.2c1.5,0.7,2.5,0.2,2.7-1.5c0.1-0.5,0-1,0-1.4c0.2-3,0.3-5.9,0.5-8.9
			c0.1-1.3,0.6-2.6,0.7-3.9c0.2-1.9-1.2-3.1-3.1-2.8c-3.7,0.7-7.5,1.1-11.3,0.6c-3-0.4-6-0.5-8.9-1.1c-7.8-1.7-15.6-3.5-22.8-7.1
			C972.5,446.7,970,445.4,967.4,444z M921.2,542.5c0.2,0,0.3,0.1,0.5,0.1c0.2-0.6,0.6-1.2,0.7-1.8c0-2.7-0.1-5.4-0.1-8.1
			c-0.1-2-0.2-4.1-0.2-6.1c0-2.6,1-5,1.9-7.5c2-5.5,5.1-10.2,9.5-13.9c2.3-1.9,3.8-4.2,4.6-7c0-0.2,0.1-0.3,0.2-0.4
			c0.5-1,0.3-1.9-0.2-2.8c-3.9-7.5-7.7-15.1-11.6-22.6c-1.9-3.7-6.8-4.5-9.7-1.6c-0.4,0.4-0.9,0.8-1.3,1.2
			c-6.9,5.9-15,9.8-23.1,13.8c-4.9,2.4-9.9,4.6-14.9,6.9c-0.3,0.1-0.5,0.6-0.7,0.8c0.3,0.2,0.5,0.4,0.8,0.6c0.2,0.1,0.4,0,0.6,0.1
			c6.7,0.8,13.5,1.6,20.2,2.5c3.5,0.5,6.9,1.6,9.2,4.3c3,3.4,5.7,7,8.4,10.6c0.4,0.5,0.7,1.3,0.8,2c0.3,3.7,0.7,7.3,0.8,11
			c0.1,2.5,0.2,4.8,1,7.2c0.7,2.2,1.2,4.5,1.7,6.7C920.7,539.6,920.9,541,921.2,542.5z M998.7,542.5c0.2,0,0.3-0.1,0.5-0.1
			c0.1-0.2,0.2-0.4,0.2-0.6c0.7-3.1,1.4-6.1,2.1-9.2c0.4-1.6,1-3.2,1.2-4.9c0.4-4.5,0.5-9,0.8-13.5c0.1-1.1,0.4-2.2,1-3.1
			c1.9-2.6,3.9-5.2,5.8-7.7c3.1-4,7-6.4,12.1-7c5-0.6,10.1-1.3,15.1-1.9c1.7-0.2,3.3-0.3,5-0.6c0.4-0.1,0.7-0.4,1.1-0.7
			c-0.3-0.3-0.6-0.7-1-0.9c-0.5-0.3-1.2-0.5-1.7-0.8c-7-3.4-14.1-6.9-21.1-10.2c-5.9-2.8-11.3-6.5-16.2-10.8c-3-2.7-7.8-1.9-9.7,1.7
			c-3.8,7.5-7.7,15-11.5,22.5c-0.2,0.4-0.4,0.7-0.5,1.1c-0.3,1,1.9,6.6,2.8,7.2c3,2.2,5.4,4.9,7.6,7.8c2.5,3.3,4,7,5.2,10.9
			c0.6,1.9,0.8,4.1,0.8,6.1c0,4.2-0.2,8.4-0.3,12.6C998.1,541.1,998.5,541.8,998.7,542.5z M892.5,567.7c2.4,3.3,4.9,6.7,7.4,10.1
			c0.5,0.7,1.2,1.3,1.9,1.8c0.6,0.4,1.2,0.2,1.2-0.6c0.1-2.1,0.2-4.2-0.5-6.3c-1.4-4.1-2.9-8.2-3.8-12.5c-1.8-8.2-2-16.6-1.7-24.9
			c0.1-4.2,0.8-8.4,2-12.4c1.8-6.2,4.3-12.1,8.3-17.2c0.6-0.8,0.6-1.5,0-2.1c-1.4-1.4-2.8-2.8-4.3-4c-2-1.6-3.2-1.3-4.9,0.7
			c-2.6,3.1-4.5,6.7-6.1,10.4c-2.2,5-3.8,10.3-4.4,15.8c-0.3,3.1-1.6,5.8-3.8,7.9c-5.4,5.1-11.3,9.5-17.8,13.2c-0.4,0.2-0.7,0.7-1,1
			c0.4,0.2,0.8,0.6,1.3,0.7c5,1.3,9.6,3.4,13.1,7.3c3.1,3.4,6,6.8,9.1,10.2c1.3,1.4,2.6,2.8,3.9,4.2c0.3,0.3,0.7,0.4,1,0.6
			c0.1-0.1,0.2-0.1,0.3-0.2C893.1,570.2,892.8,568.8,892.5,567.7z M1027,571.6c0.1,0.1,0.3,0.2,0.4,0.3c1-0.9,2.1-1.6,2.9-2.6
			c3.5-3.9,6.8-8,10.3-11.9c2.2-2.5,4.8-4.7,7.9-5.9c2-0.8,4.2-1.4,6.2-2.2c0.3-0.1,0.6-0.4,0.9-0.7c-0.2-0.3-0.4-0.6-0.7-0.8
			c-6.5-3.7-12.5-8.2-18-13.3c-1.9-1.8-3.3-4-3.7-6.7c-0.6-4.4-1.6-8.7-3.1-12.9c-1.9-5.2-4.3-10.1-7.7-14.5c-1.6-2.1-2.9-2.3-5-0.7
			c-1.4,1.1-2.7,2.5-4,3.7c-0.8,0.7-0.9,1.5-0.2,2.4c2.8,3.6,4.9,7.7,6.5,11.9c2,5.1,3.4,10.4,3.6,15.8c0.2,5.2,0.1,10.5-0.2,15.7
			c-0.5,8-2,15.8-5.2,23.3c-0.9,2.1-0.7,4.2-0.6,6.4c0,0.8,0.6,1,1.3,0.6c0.4-0.2,0.7-0.5,1-0.8c1.6-1.9,3.2-3.8,4.7-5.8
			c1.3-1.8,2.3-3.8,3.5-5.7c0.1,0,0.1,0,0.2,0.1C1027.7,568.8,1027.4,570.2,1027,571.6z M960.1,608.6c2.5,0,5,0,7.4,0
			c1.2,0,1.9,0.6,2.2,1.8c0.3,1.4,0.8,2.7,1,4.1c0.6,3.3,1.4,6.5,0.6,9.9c-0.3,1.4-0.7,2.9-1.1,4.3c-1.3,4.7-2.6,9.4-3.8,14.1
			c-0.7,2.8-1.2,5.7-0.4,8.5c0.1,0.5,0.6,0.8,0.9,1.3c0.3-0.4,0.7-0.8,0.8-1.3c0.8-2.1,1.3-4.3,2.2-6.3c2.4-5.3,5-10.4,7.5-15.7
			c1.5-3.1,2.3-6.2,2.1-9.7c-0.1-3.2,0.1-6.5,0.2-9.7c0.1-2.2,1-3.4,3.1-4c0.9-0.3,1.4-0.8,1.4-1.8c0-2.7,0-5.4,0-8.2
			c0-1-0.5-1.3-1.4-1.2c-0.4,0-0.7,0.2-1,0.3c-6.6,2.4-13.4,3.9-20.5,3.5c-1.4-0.1-2.9-0.1-4.3,0c-5.4,0.3-10.5-0.9-15.6-2.4
			c-1.3-0.4-2.6-0.9-3.9-1.3c-1.3-0.4-1.9,0-1.9,1.1c0,2.7,0,5.4,0,8.2c0,0.9,0.5,1.5,1.4,1.7c2.3,0.7,3.1,1.8,3.2,4.2
			c0.1,4,0.1,7.9,0.3,11.9c0,1.2,0.2,2.5,0.6,3.6c1.6,3.9,3.3,7.8,5.1,11.6c2.2,4.6,4.9,9.1,6.1,14.2c0.1,0.4,0.5,0.8,0.8,1.2
			c0.3-0.4,0.8-0.8,1-1.3c0.7-2.2,0.5-4.5,0-6.6c-1.5-6-3.1-12.1-4.8-18.1c-0.6-2.2-1.1-4.5-0.8-6.7c0.5-3.2,1.2-6.3,1.9-9.5
			c0.2-1.1,1-1.6,2.1-1.6C955.3,608.6,957.7,608.6,960.1,608.6z M899.5,646.2c0.2,0,0.3,0,0.5,0.1c0.3-0.8,0.5-1.5,0.8-2.3
			c2.2-5.6,4.2-11.4,6.8-16.9c4.4-9.2,9.5-18.1,15-26.7c1.1-1.7,1.7-3.6,1.6-5.7c-0.1-2.1-0.2-4.2-0.2-6.4c0-1.6-0.5-2.6-1.8-3.5
			c-3.6-2.7-7.3-5.1-10.2-8.7c-1.5-1.8-3.1-3.6-4.6-5.3c-0.6-0.7-1.3-1.1-2.2-0.7c-0.9,0.4-1.2,1.2-1.2,2.1c0,3.7,0.1,7.4,0,11.2
			c0,1.4,0.5,2.3,1.4,3.3c1.9,2,3.7,4.1,5.6,6.1c1.8,1.9,1.7,4.2,1.3,6.4c-1.4,6.5-3.5,12.8-6,19c-3.5,8.6-5.7,17.5-6.9,26.7
			C899.3,645.3,899.4,645.8,899.5,646.2z M1020.6,646.2c0.2,0,0.3,0,0.5,0c0-0.4,0.1-0.9,0.1-1.3c-0.2-1.7-0.5-3.3-0.8-5
			c-0.8-5.2-1.9-10.4-3.7-15.3c-3.1-8.2-6.3-16.4-8.2-25c-0.4-1.9-0.6-3.9,0.4-5.6c0.9-1.5,2.1-2.9,3.3-4.2c1.1-1.3,2.4-2.4,3.5-3.6
			c0.4-0.4,0.8-1.1,0.8-1.6c0.1-4.3,0.1-8.6,0-12.8c0-0.5-0.6-1.2-1.1-1.5c-0.5-0.2-1.2,0-1.7,0.3c-0.5,0.3-0.9,0.9-1.3,1.4
			c-3.3,3.8-6.4,7.8-10.7,10.6c-1.3,0.9-2.6,1.8-3.7,2.8c-0.6,0.5-1.2,1.4-1.2,2.2c-0.2,2.7-0.4,5.4-0.2,8.1
			c0.1,1.4,0.6,2.9,1.3,4.2c1.3,2.4,2.8,4.5,4.2,6.8c1.7,3,3.4,5.9,5.1,9c2.5,4.6,5.2,9.2,7.3,14c2.2,5,3.9,10.2,5.9,15.3
			C1020.2,645.3,1020.4,645.8,1020.6,646.2z"/>
		<path d="M988.1,660c-1.1-1.2-1.5-2.5-1.5-4.2c0-6.3-0.1-12.6-0.2-18.8c-0.1-5.9-0.4-11.9-0.5-17.8c-0.2-12.6-0.3-25.2-0.5-37.8
			c0-2.4,0-4.9,0-7.3c0-1.3,0.3-1.4,1.6-1.4c1.9,0,3.8,0,5.7-0.3c3.1-0.6,3.2-0.5,3.1,2.7c-0.3,10.1-0.5,20.3-0.8,30.4
			c-0.2,8.2-0.1,16.4-0.6,24.6c-0.3,5-1.5,10-2.4,14.9c-0.8,4.6-1.9,9.2-2.8,13.7c-0.1,0.5-0.3,0.9-0.5,1.4
			C988.6,660,988.3,660,988.1,660z"/>
		<path d="M931.7,660c-0.5-2-1-4-1.4-6c-0.7-3.5-1.4-7-2.1-10.5c-1.8-8.6-2.5-17.3-2.5-26.1c0-10.2-0.2-20.3-0.4-30.5
			c-0.1-4.4-0.4-8.8-0.7-13.2c-0.1-1.6,0-1.8,1.6-1.6c1.5,0.1,3.1,0.4,4.6,0.5c0.9,0.1,1.9,0.1,2.9,0c1-0.1,1.5,0.3,1.5,1.3
			c0,3.1,0,6.2,0,9.4c0,10.2,0,20.3-0.1,30.5c-0.1,6.4-0.4,12.8-0.6,19.2c-0.1,2.6-0.2,5.3-0.3,7.9c-0.1,5-0.2,10.1-0.2,15.1
			c0,1.6-0.4,2.9-1.5,4C932.2,660,931.9,660,931.7,660z"/>
		<path d="M973.1,563.9c0.8,2.1,1.6,4.1,2.4,6.2c0.1,0,0.3,0,0.4-0.1c0-0.6-0.1-1.3-0.1-1.9c0-0.3,0.2-0.7,0.4-0.9
			c0.1-0.1,0.6,0.1,0.8,0.3c1.7,2.1,3.3,4.2,4.9,6.4c0.2,0.3,0.3,0.8,0.4,1.2c0,2,0,4,0,6c0,0.9-0.4,1.3-1.4,1.4
			c-1.3,0.1-2.6,0.5-3.9,0.8c-0.3,0.1-0.7,0.1-1,0.2c-0.4,0.2-0.8,0.4-1.1,0.7c-0.6,0.4-1,1.1-1.6,1.3c-3.1,1-6.2,1.5-9.5,1
			c-2.8-0.4-5.7-0.1-8.5,0.2c-3,0.3-5.8-0.5-8.5-1.4c-0.1,0-0.2-0.1-0.3-0.2c-1.8-2.2-4.4-2.5-7-2.6c-0.8,0-1.2-0.5-1.2-1.2
			c0-2.1,0-4.2,0-6.4c0-0.5,0.4-1.1,0.7-1.6c1.4-1.9,2.9-3.8,4.3-5.6c0.2-0.3,0.7-0.4,1.1-0.6c0.1,0.4,0.3,0.7,0.3,1.1
			c0,0.6,0,1.1,0.1,1.8c0.7-2.1,2.3-3.9,2.4-6.8c-1.2,0.6-2.4,0.8-3.2,1.5c-1.9,1.5-3.7,3.3-5.6,4.9c-1.2,1.1-2.7,1.6-4.3,1.6
			c-2.5,0-5.1-0.3-7.6-0.6c-1.3-0.1-1.5-0.8-0.9-2c1.2-2.2,1.2-2.7-0.6-4.5c-0.4-0.4-0.7-0.8-1.1-1.1c-2-1.2-2.7-3.2-3.3-5.3
			c-0.6-2.2,0.6-3.7,1.7-5.3c0.1-0.2,0.9-0.2,1.3,0c0.5,0.3,1,0.8,1.8,1.1c-0.3-1.6-0.4-3.3-0.9-4.9c-0.9-2.7-0.9-5.3,0.4-7.9
			c0.5-1,0.7-2.1,0.8-3.2c0.2-2.8,0.3-5.6,0.5-8.4c0.1-1.4,0.4-2.8,0.6-4.3c0.1-0.5,0.1-1.1,0.2-1.6c-0.1,0-0.2-0.1-0.4-0.1
			c-0.3,0.7-0.7,1.4-0.9,2.2c-0.3,1.6-0.5,3.2-0.8,4.7c-0.1,0.5-0.5,1-0.8,1.5c-0.2-0.4-0.6-0.9-0.7-1.3c-0.8-3.8,0.1-7.3,1.6-10.8
			c1.5-3.6,3.3-6.9,5.9-9.8c1.6-1.7,3.2-3.5,4.8-5.1c0.7-0.7,1.6-1.4,2.5-1.8c4.7-1.8,9.3-3.6,14.1-5.1c4.6-1.4,9.3-1.3,14-0.5
			c5.8,1.1,11.2,3.5,16.6,5.8c1.1,0.5,2,1.4,2.9,2.3c1.7,1.7,3.4,3.5,4.9,5.4c3.3,4,5.4,8.6,6.6,13.6c0.5,1.9,0.1,4.1,0,6.2
			c0,0.4-0.4,0.8-0.6,1.2c-0.3-0.4-0.7-0.8-0.8-1.3c-0.3-1.6-0.5-3.2-0.8-4.8c-0.2-0.8-0.6-1.5-0.9-2.2c-0.1,0-0.2,0.1-0.3,0.1
			c0,0.4,0,0.8,0.1,1.2c0.4,4.1,0.7,8.3,1.2,12.4c0.2,1.6,0.6,3.1,1.1,4.6c0.7,2,0.9,3.9,0.4,6c-0.6,2-0.9,4.1-1.3,6.1
			c0.1,0,0.2,0.1,0.4,0.1c0.5-0.4,0.9-0.8,1.4-1.2c0.6-0.5,1.1-0.3,1.6,0.3c2.2,2.7,1.5,5.4,0.3,8.2c-0.2,0.5-0.9,0.9-1.3,1.3
			c-0.6,0.6-1.3,1.1-2,1.8c-1.9,1.8-1.9,2.3-0.6,4.6c0.6,1.1,0.5,1.7-0.7,1.9c-3.2,0.6-6.5,1.3-9.7,0.2c-1.2-0.4-2.3-1.2-3.3-2
			c-1.6-1.3-3-2.8-4.6-4c-0.8-0.6-1.9-0.9-2.9-1.4C973.4,563.5,973.2,563.7,973.1,563.9z M936.9,541.7c-0.5,0-1-0.1-1.6,0
			c-3.3,0.4-4.5,1-4.3,5.1c0.1,1.4,0.7,2.8,1.2,4.1c1,2.7,3,4.3,5.7,5.1c3.6,1,7.2,1.6,11,0.7c1.2-0.3,2.1-0.8,2.5-2.1
			c0.5-1.2,1.2-2.3,1.9-3.5c0.5-1,1.2-1.9,1.7-2.9c0.7-1.5,0.4-2.5-1.1-3.4c-0.5-0.3-1-0.5-1.5-0.7
			C947.2,542.8,942.1,541.8,936.9,541.7z M989.5,546.3c-0.2-3.2-0.9-4.1-3.6-4.4c-0.6-0.1-1.2-0.2-1.8-0.1
			c-3.8,0.4-7.6,0.8-11.4,1.3c-1.9,0.3-3.8,0.9-5.6,1.6c-2,0.9-2.5,2-1.5,3.8c0.5,1,1.1,1.8,1.6,2.8c0.6,1.1,1.4,2.2,1.8,3.4
			c0.5,1.4,1.4,1.9,2.7,2.2c3.2,0.7,6.4,0.3,9.6-0.4C986.8,555.2,988.9,551.3,989.5,546.3z M955.8,565.4c0,0,0.1,0,0.1,0
			c0,0.3,0,0.6,0.1,0.8c0.4,2,1.6,2.5,3.4,1.5c0.5-0.3,1.4-0.1,2,0.2c1.1,0.7,2,0.7,2.6-0.4c0.4-0.9,0.8-2.1,0.5-2.9
			c-0.8-2.8-1.9-5.6-3.1-8.3c-0.6-1.3-1.6-1.3-2.2,0c-0.9,2-1.7,4-2.4,6.1C956.3,563.4,956.1,564.4,955.8,565.4z"/>
		<path d="M967.4,444c2.6,1.3,5.1,2.7,7.7,4c7.2,3.6,15,5.4,22.8,7.1c2.9,0.6,5.9,0.7,8.9,1.1c3.8,0.5,7.6,0.1,11.3-0.6
			c1.9-0.4,3.2,0.9,3.1,2.8c-0.1,1.3-0.6,2.6-0.7,3.9c-0.2,2.9-0.4,5.9-0.5,8.9c0,0.5,0,1,0,1.4c-0.2,1.7-1.2,2.2-2.7,1.5
			c-3.9-1.8-7.7-3.5-11.6-5.2c-6.7-3.1-13.8-4.6-21-5.8c-1.1-0.2-2.2-0.2-2.7,1.4c1.8,0.9,3.6,1.7,5.5,2.6c1.7,0.8,3.4,1.7,5.1,2.4
			c1.1,0.5,1.4,1.3,0.9,2.3c-1.6,3.4-3.3,6.8-5,10.2c-0.4,0.7-0.8,1.4-1.3,2c-1,1.3-2.1,1.6-3.7,0.9c-6.6-2.7-13.3-4.4-20.4-5.2
			c-4.5-0.5-8.9,0.3-13.2,1.2c-4.4,1-8.7,2.6-13,4c-1.6,0.5-3,0.2-3.9-1.5c-1.3-2.3-2.5-4.6-3.7-7c-0.8-1.5-1.5-3-2.1-4.5
			c-0.6-1.4-0.4-1.8,0.9-2.5c3-1.5,6.1-3,9.2-4.4c0.4-0.2,0.8-0.5,1.3-0.7c-0.4-1.1-1.1-1.5-2.1-1.3c-3.7,0.7-7.4,1.3-11,2.2
			c-7.7,1.9-14.7,5.4-21.8,8.7c-2,0.9-2.9,0.3-3-1.9c-0.1-3.3-0.3-6.5-0.5-9.8c-0.1-1.3-0.6-2.6-0.7-3.9c-0.2-1.8,1.2-3.1,3-2.7
			c6,1.4,12.2,1.1,18.1,0c8.1-1.5,16.2-3.3,23.7-7c2.9-1.4,5.7-2.9,8.5-4.4c0.2-0.1,0.3-0.2,0.6-0.5c-1.1,0.1-1.9,0.1-2.7,0.2
			c-1.2,0.2-2.3-0.3-3.2-1c-0.7-0.5-0.7-1.1-0.2-1.7c2.4-3,5-6,7.1-9.2c2-3.1,3.6-6.6,5.3-9.9c0.2-0.4,0.5-0.7,0.7-1
			c0.3,0.3,0.6,0.6,0.8,0.9c1.8,3.3,3.3,6.8,5.4,10c2.1,3.2,4.6,6.1,7,9.1c0.5,0.7,0.6,1.3-0.2,1.8c-1,0.7-2,1.1-3.2,0.9
			c-0.8-0.1-1.6-0.1-2.4-0.2C967.5,443.8,967.5,443.9,967.4,444z"/>
		<path d="M921.2,542.5c-0.3-1.4-0.6-2.9-0.9-4.3c-0.5-2.3-1-4.5-1.7-6.7c-0.7-2.4-0.9-4.8-1-7.2c-0.1-3.7-0.5-7.3-0.8-11
			c-0.1-0.7-0.4-1.4-0.8-2c-2.8-3.6-5.5-7.2-8.4-10.6c-2.4-2.7-5.7-3.9-9.2-4.3c-6.7-0.9-13.5-1.7-20.2-2.5c-0.2,0-0.4,0-0.6-0.1
			c-0.3-0.2-0.5-0.4-0.8-0.6c0.2-0.3,0.4-0.7,0.7-0.8c5-2.3,10-4.5,14.9-6.9c8.1-4,16.2-7.8,23.1-13.8c0.5-0.4,0.9-0.8,1.3-1.2
			c2.9-2.8,7.8-2,9.7,1.6c3.9,7.5,7.7,15.1,11.6,22.6c0.5,1,0.6,1.9,0.2,2.8c-0.1,0.1-0.1,0.3-0.2,0.4c-0.8,2.8-2.3,5.1-4.6,7
			c-4.4,3.7-7.5,8.4-9.5,13.9c-0.9,2.4-1.9,4.9-1.9,7.5c0,2,0.2,4.1,0.2,6.1c0.1,2.7,0.2,5.4,0.1,8.1c0,0.6-0.4,1.2-0.7,1.8
			C921.5,542.5,921.4,542.5,921.2,542.5z"/>
		<path d="M998.7,542.5c-0.2-0.7-0.6-1.4-0.6-2.1c0.1-4.2,0.3-8.4,0.3-12.6c0-2-0.2-4.2-0.8-6.1c-1.2-3.8-2.7-7.6-5.2-10.9
			c-2.2-2.9-4.6-5.6-7.6-7.8c-0.8-0.6-3.1-6.3-2.8-7.2c0.1-0.4,0.3-0.7,0.5-1.1c3.8-7.5,7.7-15,11.5-22.5c1.9-3.7,6.7-4.4,9.7-1.7
			c4.9,4.3,10.2,8,16.2,10.8c7.1,3.4,14.1,6.8,21.1,10.2c0.6,0.3,1.2,0.5,1.7,0.8c0.4,0.2,0.6,0.6,1,0.9c-0.4,0.2-0.7,0.6-1.1,0.7
			c-1.7,0.2-3.3,0.4-5,0.6c-5,0.6-10.1,1.3-15.1,1.9c-5.1,0.6-9,3-12.1,7c-2,2.6-4,5.1-5.8,7.7c-0.6,0.9-1,2-1,3.1
			c-0.3,4.5-0.5,9-0.8,13.5c-0.1,1.7-0.8,3.3-1.2,4.9c-0.7,3.1-1.4,6.1-2.1,9.2c-0.1,0.2-0.1,0.4-0.2,0.6
			C999,542.5,998.9,542.5,998.7,542.5z"/>
		<path d="M892.5,567.7c0.3,1.1,0.6,2.4,1,3.8c-0.1,0.1-0.2,0.1-0.3,0.2c-0.3-0.2-0.7-0.3-1-0.6c-1.3-1.4-2.6-2.8-3.9-4.2
			c-3-3.4-6-6.9-9.1-10.2c-3.5-3.9-8.1-6-13.1-7.3c-0.5-0.1-0.8-0.5-1.3-0.7c0.3-0.3,0.6-0.8,1-1c6.4-3.8,12.3-8.2,17.8-13.2
			c2.2-2.1,3.5-4.8,3.8-7.9c0.6-5.5,2.3-10.7,4.4-15.8c1.6-3.7,3.5-7.3,6.1-10.4c1.6-2,2.9-2.3,4.9-0.7c1.5,1.2,2.9,2.6,4.3,4
			c0.7,0.7,0.6,1.4,0,2.1c-4,5.1-6.5,11-8.3,17.2c-1.2,4-1.9,8.2-2,12.4c-0.2,8.4,0,16.7,1.7,24.9c0.9,4.2,2.4,8.3,3.8,12.5
			c0.7,2.1,0.6,4.2,0.5,6.3c0,0.8-0.6,1-1.2,0.6c-0.7-0.5-1.4-1.1-1.9-1.8C897.4,574.5,894.9,571,892.5,567.7z"/>
		<path d="M1027,571.6c0.3-1.4,0.7-2.8,1-4.2c-0.1,0-0.1,0-0.2-0.1c-1.2,1.9-2.2,3.9-3.5,5.7c-1.4,2-3.1,3.9-4.7,5.8
			c-0.3,0.3-0.6,0.6-1,0.8c-0.7,0.4-1.2,0.2-1.3-0.6c-0.1-2.1-0.3-4.3,0.6-6.4c3.2-7.4,4.7-15.3,5.2-23.3c0.3-5.2,0.4-10.5,0.2-15.7
			c-0.3-5.4-1.7-10.7-3.6-15.8c-1.7-4.3-3.7-8.3-6.5-11.9c-0.7-0.9-0.6-1.7,0.2-2.4c1.3-1.3,2.6-2.6,4-3.7c2.1-1.6,3.3-1.4,5,0.7
			c3.4,4.4,5.9,9.3,7.7,14.5c1.5,4.2,2.4,8.5,3.1,12.9c0.4,2.7,1.8,4.9,3.7,6.7c5.5,5.1,11.5,9.6,18,13.3c0.3,0.2,0.4,0.5,0.7,0.8
			c-0.3,0.2-0.5,0.6-0.9,0.7c-2.1,0.7-4.2,1.3-6.2,2.2c-3.1,1.3-5.7,3.4-7.9,5.9c-3.5,3.9-6.8,7.9-10.3,11.9c-0.9,1-1.9,1.8-2.9,2.6
			C1027.3,571.8,1027.2,571.7,1027,571.6z"/>
		<path d="M960.1,608.6c-2.4,0-4.9,0-7.3,0c-1.1,0-1.9,0.5-2.1,1.6c-0.7,3.2-1.4,6.3-1.9,9.5c-0.4,2.3,0.2,4.5,0.8,6.7
			c1.7,6,3.3,12,4.8,18.1c0.5,2.2,0.7,4.4,0,6.6c-0.2,0.5-0.6,0.9-1,1.3c-0.3-0.4-0.7-0.8-0.8-1.2c-1.2-5.1-3.9-9.5-6.1-14.2
			c-1.8-3.8-3.5-7.7-5.1-11.6c-0.5-1.1-0.6-2.4-0.6-3.6c-0.1-4-0.2-7.9-0.3-11.9c-0.1-2.4-0.9-3.5-3.2-4.2c-0.9-0.3-1.4-0.8-1.4-1.7
			c0-2.7,0-5.4,0-8.2c0-1.1,0.7-1.5,1.9-1.1c1.3,0.4,2.6,0.9,3.9,1.3c5.1,1.5,10.2,2.7,15.6,2.4c1.4-0.1,2.9-0.1,4.3,0
			c7.1,0.4,13.9-1.1,20.5-3.5c0.3-0.1,0.7-0.2,1-0.3c0.9-0.1,1.4,0.2,1.4,1.2c0,2.7,0,5.4,0,8.2c0,1-0.5,1.5-1.4,1.8
			c-2.1,0.6-3,1.8-3.1,4c-0.1,3.2-0.3,6.5-0.2,9.7c0.1,3.5-0.7,6.6-2.1,9.7c-2.5,5.2-5.1,10.4-7.5,15.7c-0.9,2-1.5,4.2-2.2,6.3
			c-0.2,0.5-0.6,0.9-0.8,1.3c-0.3-0.4-0.8-0.8-0.9-1.3c-0.8-2.9-0.4-5.7,0.4-8.5c1.2-4.7,2.6-9.4,3.8-14.1c0.4-1.4,0.8-2.9,1.1-4.3
			c0.8-3.3,0-6.6-0.6-9.9c-0.3-1.4-0.7-2.7-1-4.1c-0.3-1.2-1-1.8-2.2-1.8C965.1,608.6,962.6,608.6,960.1,608.6z"/>
		<path d="M899.5,646.2c0-0.4-0.1-0.9-0.1-1.3c1.2-9.2,3.4-18.1,6.9-26.7c2.5-6.2,4.6-12.5,6-19c0.5-2.2,0.5-4.5-1.3-6.4
			c-1.9-2-3.7-4.1-5.6-6.1c-0.9-1-1.4-1.9-1.4-3.3c0.1-3.7,0-7.4,0-11.2c0-1,0.3-1.7,1.2-2.1c0.9-0.4,1.6,0.1,2.2,0.7
			c1.6,1.8,3.2,3.5,4.6,5.3c2.9,3.5,6.6,6,10.2,8.7c1.2,0.9,1.8,2,1.8,3.5c0,2.1,0.1,4.2,0.2,6.4c0.1,2.1-0.5,3.9-1.6,5.7
			c-5.5,8.6-10.7,17.5-15,26.7c-2.6,5.5-4.6,11.2-6.8,16.9c-0.3,0.8-0.6,1.5-0.8,2.3C899.8,646.2,899.6,646.2,899.5,646.2z"/>
		<path d="M1020.6,646.2c-0.2-0.5-0.4-0.9-0.6-1.4c-1.9-5.1-3.6-10.3-5.9-15.3c-2.1-4.8-4.8-9.4-7.3-14c-1.6-3-3.3-6-5.1-9
			c-1.4-2.3-2.9-4.5-4.2-6.8c-0.7-1.3-1.2-2.7-1.3-4.2c-0.1-2.7,0-5.4,0.2-8.1c0.1-0.8,0.7-1.6,1.2-2.2c1.1-1,2.4-2,3.7-2.8
			c4.3-2.8,7.3-6.8,10.7-10.6c0.4-0.5,0.8-1.1,1.3-1.4c0.5-0.3,1.3-0.5,1.7-0.3c0.5,0.2,1.1,1,1.1,1.5c0.1,4.3,0.1,8.6,0,12.8
			c0,0.6-0.4,1.2-0.8,1.6c-1.1,1.2-2.4,2.3-3.5,3.6c-1.2,1.3-2.5,2.7-3.3,4.2c-1,1.7-0.8,3.7-0.4,5.6c2,8.6,5.2,16.8,8.2,25
			c1.8,5,2.9,10.1,3.7,15.3c0.3,1.7,0.6,3.3,0.8,5c0.1,0.4,0,0.9-0.1,1.3C1020.9,646.2,1020.7,646.2,1020.6,646.2z"/>
		<path class="st0" d="M936.9,541.7c5.3,0,10.4,1.1,15.4,2.5c0.5,0.2,1.1,0.4,1.5,0.7c1.5,0.9,1.8,1.9,1.1,3.4
			c-0.5,1-1.1,1.9-1.7,2.9c-0.6,1.1-1.4,2.2-1.9,3.5c-0.5,1.3-1.4,1.8-2.5,2.1c-3.7,0.9-7.4,0.3-11-0.7c-2.7-0.8-4.7-2.4-5.7-5.1
			c-0.5-1.3-1.1-2.7-1.2-4.1c-0.2-4,1-4.7,4.3-5.1C935.8,541.7,936.3,541.7,936.9,541.7z"/>
		<path class="st0" d="M989.5,546.3c-0.6,5-2.7,8.9-8.2,10c-3.2,0.7-6.4,1.1-9.6,0.4c-1.3-0.3-2.2-0.8-2.7-2.2
			c-0.4-1.2-1.2-2.3-1.8-3.4c-0.5-0.9-1.1-1.8-1.6-2.8c-0.9-1.8-0.5-2.9,1.5-3.8c1.8-0.8,3.7-1.3,5.6-1.6c3.8-0.6,7.6-0.9,11.4-1.3
			c0.6-0.1,1.2,0.1,1.8,0.1C988.6,542.3,989.4,543.1,989.5,546.3z"/>
		<path class="st0" d="M955.8,565.4c0.3-1,0.5-2,0.9-3c0.8-2.1,1.5-4.1,2.4-6.1c0.6-1.3,1.7-1.3,2.2,0c1.1,2.7,2.2,5.5,3.1,8.3
			c0.3,0.9-0.1,2.1-0.5,2.9c-0.5,1.1-1.5,1.1-2.6,0.4c-0.5-0.3-1.5-0.4-2-0.2c-1.8,0.9-3,0.4-3.4-1.5c0-0.3,0-0.6-0.1-0.8
			C955.9,565.4,955.9,565.4,955.8,565.4z"/>
	</g>
</g>
</svg>
